<?xml version="1.0" standalone="no"?><!DOCTYPE svg PUBLIC "-//W3C//DTD SVG 1.1//EN" "http://www.w3.org/Graphics/SVG/1.1/DTD/svg11.dtd"><svg t="1590305391726" class="icon" viewBox="0 0 1024 1024" version="1.1" xmlns="http://www.w3.org/2000/svg" p-id="4933" xmlns:xlink="http://www.w3.org/1999/xlink" width="200" height="200"><defs><style type="text/css"></style></defs><path d="M353.568 713.088A256 256 0 1 1 768 512h-64a192 192 0 1 0-384 0c0 59.616 27.264 114.592 73.184 150.848l-39.616 50.24zM480 128a32 32 0 0 1 64 0v64a32 32 0 0 1-64 0V128z" fill="#FCD118" p-id="4934"></path><path d="M760.896 217.856a31.968 31.968 0 1 1 45.248 45.248l-45.248 45.248a31.968 31.968 0 1 1-45.248-45.248l45.248-45.248zM263.104 715.648a31.968 31.968 0 1 1 45.248 45.248l-45.248 45.248a31.968 31.968 0 1 1-45.248-45.248l45.248-45.248zM263.104 217.856a31.968 31.968 0 1 0-45.248 45.248l45.248 45.248a31.968 31.968 0 1 0 45.248-45.248L263.104 217.856zM896 480a32 32 0 0 1 0 64h-64a32 32 0 0 1 0-64h64zM192 480a32 32 0 0 1 0 64H128a32 32 0 0 1 0-64h64z" fill="#FCD118" p-id="4935"></path><path d="M448 672h120.192l15.072-42.688A128 128 0 1 1 704.032 800H448a64 64 0 1 1 0-128z m0-64a128 128 0 0 0 0 256h256a192 192 0 1 0-181.088-256H448z" fill="#4A90E2" p-id="4936"></path></svg>