<?xml version="1.0" standalone="no"?><!DOCTYPE svg PUBLIC "-//W3C//DTD SVG 1.1//EN" "http://www.w3.org/Graphics/SVG/1.1/DTD/svg11.dtd"><svg t="1590305470398" class="icon" viewBox="0 0 1024 1024" version="1.1" xmlns="http://www.w3.org/2000/svg" p-id="5123" xmlns:xlink="http://www.w3.org/1999/xlink" width="200" height="200"><defs><style type="text/css"></style></defs><path d="M308 836.17a15.78 15.78 0 0 1-20.22 9.43 15.78 15.78 0 0 1-9.43-20.22l45.5-125a15.78 15.78 0 0 1 20.15-9.44 15.78 15.78 0 0 1 9.43 20.23zM703.87 836.17a15.77 15.77 0 0 1-20.22 9.43 15.77 15.77 0 0 1-9.43-20.22l45.5-125a15.78 15.78 0 0 1 20.22-9.43 15.78 15.78 0 0 1 9.43 20.23zM505.91 836.17a15.77 15.77 0 0 1-20.22 9.43 15.77 15.77 0 0 1-9.43-20.22l45.5-125a15.78 15.78 0 0 1 20.24-9.44 15.78 15.78 0 0 1 9.43 20.23z" fill="#9CDCF8" p-id="5124"></path><path d="M246.38 424.34S92.25 400.1 66.94 534.38C53 608.5 87.42 653.65 131.51 680.9c41 25.31 81.94 28.1 81.94 28.1h605.89s30.89-1.5 58.67-12c43.55-16.52 92.24-53.52 80-140.72-14.16-101.46-122.81-97.6-122.81-97.6s3.43-79.16-79.8-104.36C698.14 337 661 361.7 661 361.7s-66.61-114.12-205.4-106.4c-182.94 10.3-209.22 169.04-209.22 169.04z" fill="#78A4D6" p-id="5125"></path><path d="M945.37 556.48C928.1 465.42 823.63 470 823.63 470s4.83-78.62-73.79-104c-47.73-15.44-93.1 8.37-93.1 8.37s-69.4-117-199.71-107.58c-175.79 12.75-202.18 171.92-202.18 171.92s-147.58-31.43-175.36 96.75c-30 139 130.75 160.78 130.75 160.78h284s62.21-4.83 87.41-32.5c34.21-37.43 36-92.35-4.29-121.84-36.36-26.6-80.55-20.7-111.55-9-12.55 4.72-13.73 6.54-15.34 6.22-1.18-0.21-4.61-3.65 2.9-9.12 9.44-6.86 20.16-13.41 38.72-17.7 62.85-14.48 122 16.95 138.25 64.89a140.63 140.63 0 0 1-4.08 102.54c-4.4 9.87-6.44 9.65-6.33 13.19 0.11 3.86 4.83 3.32 4.83 3.32h201.12c0.12-0.11 143.73-11.91 119.49-139.76z" fill="#C0E7FA" p-id="5126"></path><path d="M494.14 696.13s62.21-4.83 87.41-32.5c23-25.1 31.21-57.92 22.09-85.81a74.09 74.09 0 0 0-16.2-26.92 14.64 14.64 0 0 0-1.82-1.82c-0.75-0.75-1.5-1.5-2.36-2.25-1.93-1.72-4-3.43-6.11-5a95.79 95.79 0 0 0-43.87-17.7h-0.64c49.55 30.25 32.93 82.16-0.64 100.61-26.49 14.59-84.3 17.27-102.54 13.51-109.29-22.09-105.65-80.12-103.07-102.75 0.64-6.11 4.4-8.15 1.61-9.65s-11 4.29-14.59 7c-40.22 30.25-31.1 72-31.1 72s-60.81 19.95-122.59-12.33C102.87 562.6 97.62 502 97.3 490.73l-1.61 2.57c-1.5 2.68-3.86 6.65-6.44 12.23-1 2.15-1.93 4.4-2.9 6.65-0.32 0.75-0.54 1.5-0.86 2.25-1 2.57-1.82 5.26-2.68 7.94-0.32 1-0.64 2-1 3.11-0.75 2.57-1.39 5.15-1.93 7.83-1 4.08-1.82 8.37-2.57 13.19-0.64 3.86-1 7.51-1.29 11.15 0 0.43-0.11 0.75-0.11 1.18-0.21 3-0.32 5.9-0.32 8.8v3.54c0 2 0.11 4.08 0.21 6.11C82.7 678.86 210 696.13 210 696.13h284.14zM948 579.43a161.72 161.72 0 0 0-2.68-22.63c-0.32-1.82-0.75-3.54-1.07-5.15L944 550c-0.21-1.07-0.54-2-0.75-3.11-6.11-22.2-17.8-38-31.53-49.23a131.37 131.37 0 0 0-11.26-8c-0.32-0.21 32.5 95.78-84.3 128.71C775 629.95 678.94 632.31 636.9 603a140.72 140.72 0 0 1-10.3 76.26c-4.4 9.87-6.44 9.65-6.33 13.19 0.11 3.86 4.83 3.32 4.83 3.32h201.11c-0.21 0.36 125.7-10.05 121.79-116.34z" fill="#9CDCF8" p-id="5127"></path><path d="M430.54 342.18a81.3 52.45 0 1 0 162.6 0 81.3 52.45 0 1 0-162.6 0Z" fill="#FFFFFF" p-id="5128"></path><path d="M216.91 742.2c-2.7 25.2-36.6 81.3-36.6 117.1 0 25.7 16.4 46.5 36.6 46.5s36.6-20.8 36.6-46.5c0-37.4-34.3-91.3-36.6-117.1zM414.86 742.2c-2.7 25.2-36.6 81.3-36.6 117.1 0 25.7 16.4 46.5 36.6 46.5s36.6-20.8 36.6-46.5c0-37.4-34.3-91.3-36.6-117.1zM612.82 742.2c-2.7 25.2-36.6 81.3-36.6 117.1 0 25.7 16.4 46.5 36.6 46.5s36.6-20.8 36.6-46.5c0-37.4-34.3-91.3-36.6-117.1zM810.78 742.2c-2.7 25.2-36.6 81.3-36.6 117.1 0 25.7 16.4 46.5 36.6 46.5s36.6-20.8 36.6-46.5c0-37.4-34.3-91.3-36.6-117.1z" fill="#9CDCF8" p-id="5129"></path></svg>