<?xml version="1.0" standalone="no"?><!DOCTYPE svg PUBLIC "-//W3C//DTD SVG 1.1//EN" "http://www.w3.org/Graphics/SVG/1.1/DTD/svg11.dtd"><svg t="1590305518888" class="icon" viewBox="0 0 1024 1024" version="1.1" xmlns="http://www.w3.org/2000/svg" p-id="5390" xmlns:xlink="http://www.w3.org/1999/xlink" width="200" height="200"><defs><style type="text/css"></style></defs><path d="M236.43 751.46C140.89 705.29 100.87 590.41 147 494.87A192.13 192.13 0 0 1 269.82 393C292.26 279.78 392.19 194.37 512 194.37S731.79 279.78 754.23 393c102.42 27.8 162.94 133.33 135.18 235.74A192.13 192.13 0 0 1 787.7 751.41h-0.05a27.44 27.44 0 0 1-23.54-49.58 137.18 137.18 0 0 0-60-260.56c0-106.07-86-192.05-192.05-192.05S320 335.23 320 441.3a137.18 137.18 0 0 0-58.9 261.13 27.45 27.45 0 1 1-24.69 49z" fill="#0057D9" p-id="5391"></path><path d="M361.54 727.21a27.44 27.44 0 0 1 13.26 36.46l-23.18 49.71a27.45 27.45 0 1 1-49.74-23.21l23.21-49.71a27.44 27.44 0 0 1 36.46-13.28zM479 727.21a27.44 27.44 0 0 1 13.26 36.46l-23.18 49.71A27.44 27.44 0 1 1 419 791q0.17-0.38 0.36-0.76l23.18-49.71A27.44 27.44 0 0 1 479 727.2zM593.43 727.21a27.44 27.44 0 0 1 13.26 36.46l-23.19 49.74A27.44 27.44 0 1 1 533.43 791q0.17-0.38 0.36-0.76L557 740.49a27.44 27.44 0 0 1 36.46-13.28zM708.91 727.21a27.44 27.44 0 0 1 13.3 36.45L699 813.41a27.44 27.44 0 0 1-49.71-23.21l23.18-49.71a27.44 27.44 0 0 1 36.43-13.29z" fill="#FFCC00" p-id="5392"></path></svg>