<?xml version="1.0" standalone="no"?><!DOCTYPE svg PUBLIC "-//W3C//DTD SVG 1.1//EN" "http://www.w3.org/Graphics/SVG/1.1/DTD/svg11.dtd"><svg t="1590300068366" class="icon" viewBox="0 0 1024 1024" version="1.1" xmlns="http://www.w3.org/2000/svg" p-id="2831" xmlns:xlink="http://www.w3.org/1999/xlink" width="200" height="200"><defs><style type="text/css"></style></defs><path d="M497.95 149.28a32 32 0 0 0-16.81 42L500 235.42a32 32 0 1 0 58.83-25.21L540 166.09a32 32 0 0 0-42.05-16.81zM918.13 317.36a32 32 0 0 0-42-16.81L832 319.46a32 32 0 0 0 25.21 58.83l44.12-18.91a32 32 0 0 0 16.8-42.02zM742.85 146.3a32 32 0 0 0-41.6 17.83l-17.83 44.57a32 32 0 0 0 59.42 23.77l17.83-44.57a32 32 0 0 0-17.82-41.6z" p-id="2832"></path><path d="M796.4 412.42A176 176 0 0 0 515 309.84 302.6 302.6 0 0 0 368 272C200.11 272 64 408.11 64 576s136.11 304 304 304h352c132.55 0 240-107.45 240-240 0-105.84-68.51-195.67-163.6-227.58zM624 336a112 112 0 0 1 101.25 64.07c-1.75 0-3.49-0.07-5.25-0.07a239.14 239.14 0 0 0-92 18.31 305.45 305.45 0 0 0-57.24-68.84A111.49 111.49 0 0 1 624 336z m96 480H368c-132.55 0-240-107.45-240-240s107.45-240 240-240 240 107.45 240 240a32 32 0 0 0 64 0 303.52 303.52 0 0 0-16.74-99.69A176 176 0 1 1 720 816z" p-id="2833"></path><path d="M497.95 149.28a32 32 0 0 0-16.81 42L500 235.42a32 32 0 1 0 58.83-25.21L540 166.09a32 32 0 0 0-42.05-16.81zM918.13 317.36a32 32 0 0 0-42-16.81L832 319.46a32 32 0 0 0 25.21 58.83l44.12-18.91a32 32 0 0 0 16.8-42.02zM742.85 146.3a32 32 0 0 0-41.6 17.83l-17.83 44.57a32 32 0 0 0 59.42 23.77l17.83-44.57a32 32 0 0 0-17.82-41.6z" p-id="2834"></path><path d="M796.4 412.42A176 176 0 0 0 515 309.84 302.6 302.6 0 0 0 368 272C200.11 272 64 408.11 64 576s136.11 304 304 304h352c132.55 0 240-107.45 240-240 0-105.84-68.51-195.67-163.6-227.58zM624 336a112 112 0 0 1 101.25 64.07c-1.75 0-3.49-0.07-5.25-0.07a239.14 239.14 0 0 0-92 18.31 305.45 305.45 0 0 0-57.24-68.84A111.49 111.49 0 0 1 624 336z m96 480H368c-132.55 0-240-107.45-240-240s107.45-240 240-240 240 107.45 240 240a32 32 0 0 0 64 0 303.52 303.52 0 0 0-16.74-99.69A176 176 0 1 1 720 816z" p-id="2835"></path></svg>