<?xml version="1.0" standalone="no"?><!DOCTYPE svg PUBLIC "-//W3C//DTD SVG 1.1//EN" "http://www.w3.org/Graphics/SVG/1.1/DTD/svg11.dtd"><svg t="1590310903214" class="icon" viewBox="0 0 1210 1024" version="1.1" xmlns="http://www.w3.org/2000/svg" p-id="7457" xmlns:xlink="http://www.w3.org/1999/xlink" width="236.328125" height="200"><defs><style type="text/css"></style></defs><path d="M959.004607 749.075072v-89.820058c73.884241-23.073009 128.938911-85.363897 142.963897-161.745788 14.024986-76.389226-15.293983-154.279977-76.132493-202.276309a207.643874 207.643874 0 0 0-213.796676-26.439152c-50.605845-118.569077-177.322178-185.045456-303.191289-159.050086S292.694556 247.031564 292.831725 376.030258a277.158877 277.158877 0 0 0 1.561673 29.161261 176.356493 176.356493 0 0 0-53.428447-8.362178c-86.252195 0-156.170269 60.867851-156.170269 135.947736s69.918074 135.947736 156.170269 135.947737a179.133616 179.133616 0 0 0 31.117204-2.706705v85.994728H209.240756v-0.484126c-117.46439-5.508768-209.437341-103.492951-207.940951-221.524356s95.927748-213.626132 213.492264-216.132951c25.242774-141.753582 133.174648-254.217536 273.350785-284.829708s284.894991 26.683049 366.528917 145.096986c104.178797-23.192206 212.659713 12.659163 282.736963 93.446602 70.084585 80.781203 90.549914 193.566074 53.349226 293.963553s-126.114842 172.348883-231.753353 187.525501z m-478.767679-17.707278c0 23.091347-18.646189 41.807221-41.642177 41.80722-23.003324 0-41.649513-18.715874-41.649513-41.80722 0-23.084011 41.649513-62.708997 41.649513-62.708997s41.642178 39.624986 41.642177 62.708997z m0 146.31977c0 23.087679-18.646189 41.799885-41.642177 41.799886-23.003324 0-41.649513-18.712206-41.649513-41.799886s41.649513-62.708997 41.649513-62.708997 41.642178 39.624986 41.642177 62.708997z m166.587049-62.708997c0 23.087679-18.646189 41.807221-41.642178 41.807221-23.003324 0-41.653181-18.719542-41.65318-41.807221s41.653181-62.708997 41.65318-62.708997 41.642178 39.624986 41.642178 62.708997z m0 146.316103c0 23.091347-18.646189 41.803553-41.642178 41.803553-23.003324 0-41.653181-18.712206-41.65318-41.803553 0-23.084011 41.653181-62.708997 41.65318-62.708997s41.642178 39.624986 41.642178 62.708997z m187.411805-229.926876c0 23.091347-18.646189 41.807221-41.649513 41.80722s-41.649513-18.715874-41.649513-41.80722c0-23.084011 41.649513-62.708997 41.649513-62.708997s41.649513 39.624986 41.649513 62.708997z m0 146.31977c0 23.087679-18.646189 41.799885-41.649513 41.799886s-41.649513-18.712206-41.649513-41.799886 41.649513-62.708997 41.649513-62.708997 41.649513 39.624986 41.649513 62.708997z m0 0" fill="#0E0509" p-id="7458"></path></svg>