<?xml version="1.0" standalone="no"?><!DOCTYPE svg PUBLIC "-//W3C//DTD SVG 1.1//EN" "http://www.w3.org/Graphics/SVG/1.1/DTD/svg11.dtd"><svg t="1590305328490" class="icon" viewBox="0 0 1024 1024" version="1.1" xmlns="http://www.w3.org/2000/svg" p-id="4534" xmlns:xlink="http://www.w3.org/1999/xlink" width="200" height="200"><defs><style type="text/css"></style></defs><path d="M715.776 414.72c-9.728-99.328-94.208-175.616-195.072-175.616-105.984 0-192.512 83.968-196.096 187.904-22.528-9.216-46.08-13.824-70.144-13.824-102.912 0-186.88 83.968-186.88 186.88 0 90.112 62.976 164.352 147.968 182.272 2.048 0.512 4.608 1.024 6.656 1.536 3.072 0.512 5.632 1.024 8.704 1.536 4.608 0.512 8.704 1.024 13.312 1.024h2.048c0.512 0 1.536 0.512 2.56 0.512h459.264c105.984-2.048 192.512-84.992 192.512-186.368 0-98.304-81.92-180.224-184.832-185.856z m-8.704 356.352H256c-3.072 0-5.632-0.512-8.704-0.512-4.096 0-8.192-0.512-12.288-1.024l-9.216-1.536c-1.536-0.512-3.584-0.512-5.12-1.024-76.8-16.384-134.656-84.992-134.656-166.4C86.016 506.88 162.304 430.592 256 430.592c52.736 0 101.376 23.552 133.632 65.024 2.56 3.584 7.68 4.096 11.264 1.536 3.584-2.56 4.096-7.68 1.536-11.264-16.896-21.504-37.888-38.4-61.44-50.176v-1.536c0-98.816 80.896-179.2 180.224-179.2 95.232 0 174.08 73.728 179.712 167.936 0 4.096 3.584 7.168 7.68 7.168 97.28 2.048 176.64 78.336 176.64 170.496 0 92.672-79.872 169.472-178.176 170.496zM958.976 452.096c-1.024 0-1.536 0-2.56-0.512l-33.28-10.752c-4.096-1.536-6.144-5.632-5.12-9.728 1.536-4.096 5.632-6.144 9.728-5.12l33.28 10.752c4.096 1.536 6.144 5.632 5.12 9.728-0.512 3.584-3.584 5.632-7.168 5.632zM926.208 286.208c-3.072 0-6.144-2.048-7.68-5.632-1.536-4.096 1.024-8.704 5.12-9.728l33.28-10.752c4.096-1.536 8.704 1.024 9.728 5.12 1.536 4.096-1.024 8.704-5.12 9.728l-33.28 10.752c-0.512 0.512-1.536 0.512-2.048 0.512zM687.104 112.64c-4.096 0-7.68-3.584-7.68-7.68v-34.816c0-4.096 3.584-7.68 7.68-7.68s7.68 3.584 7.68 7.68v34.816c0.512 4.096-3.072 7.68-7.68 7.68zM539.648 160.768c-2.56 0-4.608-1.024-6.144-3.072l-20.48-28.16c-2.56-3.584-1.536-8.192 1.536-10.752 3.584-2.56 8.192-1.536 10.752 1.536l20.48 28.16c2.56 3.584 1.536 8.192-1.536 10.752-1.536 1.024-3.072 1.536-4.608 1.536zM834.56 160.768c-1.536 0-3.072-0.512-4.608-1.536-3.584-2.56-4.096-7.68-1.536-10.752l20.48-28.16c2.56-3.584 7.68-4.096 10.752-1.536 3.584 2.56 4.096 7.68 1.536 10.752l-20.48 28.16c-1.024 1.536-3.584 3.072-6.144 3.072z" fill="#222222" p-id="4535"></path><path d="M844.288 493.056l-6.144-6.656c-33.792-35.328-79.872-55.296-129.536-56.32H701.44l-0.512-7.168c-5.632-94.208-84.48-167.936-179.712-167.936h-14.848l8.192-12.288c38.4-58.88 103.424-94.208 174.08-94.208 114.688 0 207.872 93.184 207.872 207.872 0 47.616-15.872 92.16-45.568 129.536l-6.656 7.168zM715.776 414.72c48.128 2.56 93.184 21.504 127.488 54.272 24.064-32.768 36.864-71.68 36.864-112.64 0-105.984-86.016-192-192-192-59.904 0-116.224 28.16-152.576 75.264 93.696 6.656 171.008 80.896 180.224 175.104z" fill="#222222" p-id="4536"></path><path d="M542.208 923.136c-6.656 24.064-31.232 38.4-55.296 31.744-24.064-6.656-38.4-31.232-31.744-55.296 6.656-24.064 62.976-60.416 62.976-60.416s30.208 59.904 24.064 83.968z" fill="#222222" p-id="4537"></path></svg>