<?xml version="1.0" standalone="no"?><!DOCTYPE svg PUBLIC "-//W3C//DTD SVG 1.1//EN" "http://www.w3.org/Graphics/SVG/1.1/DTD/svg11.dtd"><svg t="1590315495579" class="icon" viewBox="0 0 1024 1024" version="1.1" xmlns="http://www.w3.org/2000/svg" p-id="8480" xmlns:xlink="http://www.w3.org/1999/xlink" width="200" height="200"><defs><style type="text/css"></style></defs><path d="M719.36 332.8c-38.4-76.8-115.2-128-207.36-128-120.32 0-220.16 94.72-230.4 212.48-89.6 25.6-153.6 102.4-153.6 197.12 0 110.08 89.6 197.12 204.8 204.8h358.4c133.12 0 256-110.08 256-243.2 0-130.56-102.4-235.52-227.84-243.2zM691.2 768H332.8s-153.6-15.36-153.6-153.6c0-76.8 69.12-148.48 153.6-153.6 0-104.96 69.12-204.8 179.2-204.8 87.04 0 145.92 53.76 166.4 128 128-5.12 212.48 94.72 217.6 179.2 5.12 112.64-112.64 204.8-204.8 204.8z" p-id="8481"></path></svg>