<?xml version="1.0" standalone="no"?><!DOCTYPE svg PUBLIC "-//W3C//DTD SVG 1.1//EN" "http://www.w3.org/Graphics/SVG/1.1/DTD/svg11.dtd"><svg t="1590319011089" class="icon" viewBox="0 0 1024 1024" version="1.1" xmlns="http://www.w3.org/2000/svg" p-id="10199" xmlns:xlink="http://www.w3.org/1999/xlink" width="200" height="200"><defs><style type="text/css"></style></defs><path d="M393.1 282.4m-216.9 0a216.9 216.9 0 1 0 433.8 0 216.9 216.9 0 1 0-433.8 0Z" fill="#FFFBD9" p-id="10200"></path><path d="M393.1 282.4m-155.9 0a155.9 155.9 0 1 0 311.8 0 155.9 155.9 0 1 0-311.8 0Z" fill="#FFD81A" p-id="10201"></path><path d="M651.7 754.9c182.4 0 324-174.9 266.3-366.2-26-86.1-94.1-153.9-180.2-179.7-146-43.7-282.3 28.7-338.4 146.6-32.5-16.5-69.9-24.9-109.4-22.3-104.6 6.8-189.5 91.5-196.5 196.2-8.2 123 89.2 225.4 210.5 225.4h347.7z" fill="#7BBAFF" p-id="10202"></path><path d="M408 958.5c-4.6 0-9.3-1.3-13.5-4-11.8-7.5-15.2-23.1-7.7-34.9l41.6-65.4c7.5-11.8 23.1-15.2 34.9-7.8 11.8 7.5 15.2 23.1 7.7 34.9l-41.6 65.4c-4.9 7.7-13.1 11.8-21.4 11.8zM574.4 958.5c-4.6 0-9.3-1.3-13.5-4-11.8-7.5-15.2-23.1-7.7-34.9l41.6-65.4c7.5-11.8 23.1-15.2 34.9-7.8 11.8 7.5 15.2 23.1 7.7 34.9l-41.6 65.4c-4.9 7.7-13.1 11.8-21.4 11.8z" fill="#C7E2FF" p-id="10203"></path></svg>