<?xml version="1.0" standalone="no"?><!DOCTYPE svg PUBLIC "-//W3C//DTD SVG 1.1//EN" "http://www.w3.org/Graphics/SVG/1.1/DTD/svg11.dtd"><svg t="1590292117396" class="icon" viewBox="0 0 1164 1024" version="1.1" xmlns="http://www.w3.org/2000/svg" p-id="5958" xmlns:xlink="http://www.w3.org/1999/xlink" width="227.34375" height="200"><defs><style type="text/css"></style></defs><path d="M741.235528 670.915173c0 1.222456 47.85044 35.431834 47.85044 67.273916a44.881617 44.881617 0 0 1-47.85044 48.083288 44.881617 44.881617 0 0 1-47.85044-48.04448c0-31.861485 47.85044-68.496372 47.85044-67.312724z" fill="#6BAFFF" p-id="5959"></path><path d="M589.844963 698.236105c0 1.435901 56.582272 41.89339 56.582272 79.556693a53.089539 53.089539 0 0 1-56.582272 56.853929 53.089539 53.089539 0 0 1-56.582273-56.853929c0-37.624494 56.582272-80.97319 56.582273-79.556693z" fill="#6BAFFF" p-id="5960"></path><path d="M438.454397 670.915173c0 1.222456 47.85044 35.431834 47.850441 67.273916a44.881617 44.881617 0 0 1-47.850441 48.083288 44.881617 44.881617 0 0 1-47.85044-48.04448c0-31.861485 47.85044-68.496372 47.85044-67.312724z" fill="#6BAFFF" p-id="5961"></path><path d="M589.844963 887.46461c0 1.435901 56.582272 41.89339 56.582272 79.556693a53.089539 53.089539 0 0 1-56.582272 56.853929 53.089539 53.089539 0 0 1-56.582273-56.853929c0-37.624494 56.582272-80.97319 56.582273-79.556693z" fill="#6BAFFF" p-id="5962"></path><path d="M741.235528 824.381974c0 1.435901 56.582272 41.89339 56.582272 79.556692a53.089539 53.089539 0 0 1-56.582272 56.85393 53.089539 53.089539 0 0 1-56.582273-56.85393c0-37.624494 56.582272-80.97319 56.582273-79.556692z" fill="#6BAFFF" p-id="5963"></path><path d="M438.454397 824.381974c0 1.435901 56.582272 41.89339 56.582273 79.556692a53.089539 53.089539 0 0 1-56.582273 56.85393 53.089539 53.089539 0 0 1-56.582272-56.85393c0-37.624494 56.582272-80.97319 56.582272-79.556692z" fill="#6BAFFF" p-id="5964"></path><path d="M630.089007 362.778519m-362.778519 0a362.778519 362.778519 0 1 0 725.557038 0 362.778519 362.778519 0 1 0-725.557038 0Z" fill="#C9EAF2" p-id="5965"></path><path d="M305.4977 420.059338m-305.4977 0a305.4977 305.4977 0 1 0 610.9954 0 305.4977 305.4977 0 1 0-610.9954 0Z" fill="#C9EAF2" p-id="5966"></path><path d="M840.13808 458.24655m-267.310488 0a267.310488 267.310488 0 1 0 534.620975 0 267.310488 267.310488 0 1 0-534.620975 0Z" fill="#C9EAF2" p-id="5967"></path><path d="M305.517104 725.576442l522.10535-0.291061 10.885684-197.087153-587.089585-59.822752z" fill="#C9EAF2" p-id="5968"></path><path d="M343.684913 381.872125a276.857291 267.310488 0 1 0 553.714581 0 276.857291 267.310488 0 1 0-553.714581 0Z" fill="#FFFFFF" p-id="5969"></path><path d="M152.74885 420.059338a238.670078 229.123275 0 1 0 477.340157 0 238.670078 229.123275 0 1 0-477.340157 0Z" fill="#FFFFFF" p-id="5970"></path><path d="M792.38466 448.699747m-200.482866 0a200.482866 200.482866 0 1 0 400.965732 0 200.482866 200.482866 0 1 0-400.965732 0Z" fill="#FFFFFF" p-id="5971"></path><path d="M389.381501 649.182613H803.328556l-84.194266-153.292164-285.880184-7.567588z" fill="#FFFFFF" p-id="5972"></path><path d="M1140.183236 71.484599l-575.524758 336.544215h247.751184l-260.713104 269.600168 612.586535-360.760496h-237.564047z" fill="#FFD54F" p-id="5973"></path></svg>